<svg width="current" height="current" viewBox="0 0 33 33" fill="none" xmlns="http://www.w3.org/2000/svg">
<path d="M15.7139 3.79922C16.1495 3.59347 16.6459 3.56804 17.0967 3.72239L17.2868 3.79922L17.4392 3.88125C17.7738 4.08727 17.971 4.37965 18.0798 4.55573C18.2139 4.77262 18.3514 5.05362 18.4874 5.32656L21.2269 10.8253L27.3624 11.7146C27.6667 11.7587 27.9774 11.8026 28.2256 11.8617C28.4542 11.9162 28.8658 12.0312 29.1931 12.3734C29.5756 12.7734 29.7574 13.3259 29.684 13.8773C29.6209 14.3504 29.3528 14.6869 29.1996 14.8643C29.033 15.0572 28.8077 15.2744 28.5876 15.4867L24.1553 19.7615L25.2022 25.7966C25.2541 26.0962 25.3082 26.4035 25.3285 26.6573C25.3473 26.8919 25.364 27.3218 25.1345 27.7406C24.8679 28.2268 24.3967 28.5644 23.8559 28.6638C23.3914 28.7491 22.991 28.6026 22.7725 28.5128C22.5365 28.4157 22.2596 28.2704 21.9874 28.1286L16.5004 25.2706L11.0134 28.1286C10.7412 28.2704 10.4642 28.4157 10.2282 28.5128C10.0098 28.6026 9.60933 28.7491 9.14492 28.6638C8.60407 28.5644 8.13283 28.2268 7.86627 27.7406C7.63679 27.3218 7.6535 26.8919 7.67226 26.6573C7.69257 26.4035 7.74668 26.0962 7.79856 25.7966L8.84413 19.7615L4.41314 15.4867C4.19306 15.2744 3.96775 15.0572 3.80117 14.8643C3.64793 14.6869 3.37985 14.3504 3.31679 13.8773C3.24336 13.3259 3.42516 12.7734 3.80768 12.3734C4.13501 12.0312 4.54657 11.9162 4.77512 11.8617C5.02336 11.8026 5.33402 11.7587 5.6384 11.7146L11.7725 10.8253L14.5134 5.32656C14.6494 5.05362 14.7869 4.77262 14.921 4.55573C15.0454 4.35447 15.2853 4.00171 15.7139 3.79922ZM13.8767 11.9841C13.8225 12.0929 13.6963 12.3719 13.4848 12.5974C13.3226 12.7703 13.129 12.91 12.9144 13.0089C12.6349 13.1376 12.3303 13.1696 12.2087 13.1872L6.36497 14.0336L10.5837 18.1052C10.6491 18.1683 10.7948 18.2996 10.9275 18.475L11.0538 18.6651L11.1332 18.824C11.1811 18.9328 11.218 19.0463 11.2439 19.1625L11.2738 19.3383L11.2855 19.5648C11.2824 19.7859 11.2423 19.9786 11.2269 20.0674L10.2282 25.8305L15.4717 23.1C15.5808 23.0432 15.8462 22.8919 16.1488 22.8331L16.3246 22.807C16.4415 22.7958 16.5593 22.7958 16.6762 22.807L16.8519 22.8331L17.0694 22.8917C17.277 22.9617 17.4472 23.0574 17.529 23.1L22.7712 25.8305L21.7738 20.0674C21.7533 19.9492 21.6893 19.6471 21.7269 19.3383L21.7569 19.1625C21.7957 18.9885 21.8595 18.8208 21.947 18.6651L22.0733 18.475C22.206 18.2996 22.3517 18.1683 22.417 18.1052L26.6345 14.0336L20.792 13.1872C20.6705 13.1696 20.3659 13.1376 20.0863 13.0089C19.8718 12.91 19.6782 12.7703 19.516 12.5974C19.3045 12.3719 19.1782 12.0929 19.1241 11.9841L16.5004 6.71718L13.8767 11.9841Z" fill="#4D525C"/>
</svg>
